<svg xmlns="http://www.w3.org/2000/svg" viewBox="0 0 256 256" role="img" aria-label="CRM WhatsApp">
  <rect width="256" height="256" rx="56" fill="#075e54"/>
  <circle cx="128" cy="128" r="78" fill="#25d366"/>
  <path d="M94 83c-7 7-11 17-11 28 0 15 6 29 17 41l-7 25 26-7c10 6 22 9 34 9 11 0 21-4 28-11 8-7 12-17 12-27 0-32-30-58-66-58-13 0-26 4-33 10Zm22 22c2-2 5-2 7 0l8 8c2 2 2 5 0 7l-4 4c-1 1-1 3 0 4 4 7 10 13 17 17 1 1 3 1 4 0l4-4c2-2 5-2 7 0l8 8c2 2 2 5 0 7l-4 4c-4 4-11 5-16 3-14-5-28-15-38-26-11-12-20-26-25-40-2-5-1-12 3-16l4-4c2-2 5-2 7 0l8 8c2 2 2 5 0 7l-4 4c-1 1-1 3 0 4 2 4 4 8 7 11 1 1 3 1 4 0l4-4z" fill="#fff"/>
</svg>
